<?xml version="1.0" encoding="UTF-8"?>
<svg id="Calque_2" xmlns="http://www.w3.org/2000/svg" viewBox="0 0 390.33 498.94">
  <defs>
    <style>
      .cls-1 {
        fill: #8fc8e2;
      }

      .cls-1, .cls-2, .cls-3, .cls-4 {
        stroke: #001e2f;
        stroke-miterlimit: 10;
      }

      .cls-1, .cls-4 {
        stroke-width: 12px;
      }

      .cls-5 {
        fill: #ff8f86;
      }

      .cls-2 {
        fill: none;
      }

      .cls-2, .cls-3 {
        stroke-width: 14px;
      }

      .cls-2, .cls-4 {
        stroke-linecap: round;
      }

      .cls-6 {
        font-family: MontserratRoman-Bold, Montserrat;
        font-size: 59.17px;
        font-variation-settings: 'wght' 700;
        font-weight: 700;
      }

      .cls-7 {
        fill: #0d6062;
        opacity: .65;
      }

      .cls-3 {
        fill: #4c9c9f;
      }
    </style>
  </defs>
  <g id="Calque_1-2" data-name="Calque_1">
    <path class="cls-3" d="M351.05,222.21c-6.35,19.02-15.28,31.61-53.95,75.11-26.6,29.92-63.17,69.86-108.77,116.1-47.96-46.11-84.95-86.51-110.79-116.1-38.89-44.54-46.97-58.25-52.47-75.11-15.07-46.19-6.3-102.2,24.8-145.32C99.12,8.59,179.7,7.02,188.06,7c8.12.02,89.29,1.62,138.2,69.89,30.54,42.64,40.37,98.67,24.79,145.32Z"/>
    <text class="cls-6" transform="translate(0 483.62)"><tspan x="0" y="0">LOCAL LINK </tspan></text>
    <path class="cls-4" d="M115.12,416.4H11.07"/>
    <path class="cls-4" d="M367.7,416.4h-104.05"/>
    <path class="cls-7" d="M340.22,177.06c-1.47,30.3-12.43,51.95-14.77,56.44-6.19,11.86-8.14,10.91-42.73,54.33-16.02,20.11-17.52,22.71-26.37,32.7-13.12,14.8-19.18,19.62-33.76,34.81-8.42,8.77-20.55,21.92-34.56,39.03-.47-47.67-.7-74.61-.7-82.72h0c.28-7.02.57-12.02.7-14.59,1.29-25.91,2.17-92.19,0-274.55,16.31.5,41.47,3.65,67.79,17.41,25.07,13.1,41.01,30.51,50.11,40.62,5.49,6.09,9.96,11.06,14.77,18.46,21.25,32.69,20.03,67.46,19.52,78.07Z"/>
    <circle class="cls-5" cx="188.04" cy="166.68" r="122.11"/>
    <path class="cls-2" d="M154.69,194.46v55.02h66.86v-55.02"/>
    <g>
      <path class="cls-1" d="M277.6,158.24c-1.82,6.49-7.11,11.3-13.36,12.16-7.65,1.06-15.46-3.99-17.94-12.16l-12.25-60.56h23.13l20.41,60.56Z"/>
      <path class="cls-1" d="M150.02,97.68c-3.74,18.82-7.48,37.65-11.22,56.47-.38,1.22-.83,2.39-1.37,3.48-4.45,9.33-13.85,14.01-21.43,12-4.08-1.09-6.92-3.92-8.78-6.6-1.87-2.67-2.74-5.19-2.9-5.63l21.14-59.72h24.56Z"/>
      <path class="cls-1" d="M178.26,97.68l-3.75,60.56c-1.94,9.16-10.25,15.57-19.38,15.14-8.71-.41-16.14-6.96-17.7-15.74.53-1.09.99-2.26,1.37-3.48,3.74-18.82,7.48-37.65,11.22-56.47h28.24Z"/>
      <path class="cls-1" d="M207.18,158.24c-1.81,7.45-8.42,12.77-15.99,12.93-7.81.15-14.8-5.23-16.67-12.93l3.75-60.56h25.17l3.74,60.56Z"/>
      <path class="cls-1" d="M246.3,158.24c-4.22,7.3-12.09,11.7-20.42,11.39-12.17-.46-18.33-10.75-18.71-11.39l-3.74-60.56h30.62l12.25,60.56Z"/>
    </g>
  </g>
</svg>